<svg width="6" height="30" xmlns="http://www.w3.org/2000/svg" fill="none">
 <g>
  <title>Layer 1</title>
  <path d="m0,3c0,-0.42 0,-0.627 0.024,-0.801c0.07636,-0.54988 0.33009,-1.05981 0.72264,-1.45236c0.39255,-0.39255 0.90248,-0.64628 1.45236,-0.72264c0.171,-0.024 0.381,-0.024 0.801,-0.024c0.42,0 0.627,0 0.801,0.024c0.54988,0.07636 1.05981,0.33009 1.45236,0.72264c0.39255,0.39255 0.64628,0.90248 0.72264,1.45236c0.024,0.171 0.024,0.381 0.024,0.801c0,0.42 0,0.627 -0.024,0.801c-0.07636,0.54988 -0.33009,1.05981 -0.72264,1.45236c-0.39255,0.39255 -0.90248,0.64628 -1.45236,0.72264c-0.171,0.024 -0.381,0.024 -0.801,0.024c-0.42,0 -0.627,0 -0.801,-0.024c-0.54988,-0.07636 -1.05981,-0.33009 -1.45236,-0.72264c-0.39255,-0.39255 -0.64628,-0.90248 -0.72264,-1.45236c-0.024,-0.171 -0.024,-0.381 -0.024,-0.801zm0,12c0,-0.42 0,-0.627 0.024,-0.801c0.07636,-0.5499 0.33009,-1.0598 0.72264,-1.4524c0.39255,-0.3925 0.90248,-0.6462 1.45236,-0.7226c0.171,-0.024 0.381,-0.024 0.801,-0.024c0.42,0 0.627,0 0.801,0.024c0.54988,0.0764 1.05981,0.3301 1.45236,0.7226c0.39255,0.3926 0.64628,0.9025 0.72264,1.4524c0.024,0.171 0.024,0.381 0.024,0.801c0,0.42 0,0.627 -0.024,0.801c-0.07636,0.5499 -0.33009,1.0598 -0.72264,1.4524c-0.39255,0.3925 -0.90248,0.6462 -1.45236,0.7226c-0.171,0.024 -0.381,0.024 -0.801,0.024c-0.42,0 -0.627,0 -0.801,-0.024c-0.54988,-0.0764 -1.05981,-0.3301 -1.45236,-0.7226c-0.39255,-0.3926 -0.64628,-0.9025 -0.72264,-1.4524c-0.024,-0.171 -0.024,-0.381 -0.024,-0.801zm0,12c0,-0.417 0,-0.627 0.024,-0.801c0.07681,-0.5489 0.33036,-1.0578 0.72227,-1.4497c0.39191,-0.3919 0.90084,-0.6455 1.44973,-0.7223c0.177,-0.024 0.384,-0.024 0.801,-0.024c0.417,0 0.63,0 0.801,0.024c0.54889,0.0768 1.05782,0.3304 1.44973,0.7223c0.39191,0.3919 0.64546,0.9008 0.72227,1.4497c0.024,0.174 0.024,0.384 0.024,0.801c0,0.417 0,0.627 -0.024,0.801c-0.07681,0.5489 -0.33036,1.0578 -0.72227,1.4497c-0.39191,0.3919 -0.90084,0.6455 -1.44973,0.7223c-0.174,0.024 -0.384,0.024 -0.801,0.024c-0.417,0 -0.627,0 -0.801,-0.024c-0.54889,-0.0768 -1.05782,-0.3304 -1.44973,-0.7223c-0.39191,-0.3919 -0.64546,-0.9008 -0.72227,-1.4497c-0.024,-0.174 -0.024,-0.384 -0.024,-0.801z" fill="#394370" id="svg_1"/>
 </g>

</svg>