<svg width="171" height="37" viewBox="0 0 171 37" fill="none" xmlns="http://www.w3.org/2000/svg">
<path d="M13.8672 36.3516C11.5234 36.3516 9.4401 35.8568 7.61719 34.8672C5.79427 33.8776 4.36198 32.5104 3.32031 30.7656C2.27865 29.0208 1.75781 27.0156 1.75781 24.75C1.75781 22.4323 2.27865 20.375 3.32031 18.5781C4.36198 16.7552 5.79427 15.3229 7.61719 14.2812C9.46615 13.2396 11.5625 12.7188 13.9062 12.7188C16.1979 12.7188 18.2031 13.2135 19.9219 14.2031C21.6667 15.1667 23.0339 16.5208 24.0234 18.2656C25.013 19.9844 25.5078 21.9896 25.5078 24.2812C25.5078 26.2083 25.1562 27.9271 24.4531 29.4375C23.776 30.9219 22.8646 32.1849 21.7188 33.2266C20.599 34.2422 19.349 35.0234 17.9688 35.5703C16.6146 36.0911 15.2474 36.3516 13.8672 36.3516ZM14.1797 33.6953C15.4557 33.6953 16.5365 33.3698 17.4219 32.7188C18.3073 32.0417 18.9714 31.0781 19.4141 29.8281C19.8828 28.5521 20.1172 27.0286 20.1172 25.2578C20.1172 23.2005 19.8307 21.4167 19.2578 19.9062C18.7109 18.3698 17.9427 17.1849 16.9531 16.3516C15.9635 15.4922 14.7917 15.0625 13.4375 15.0625C11.5104 15.0625 9.98698 15.8438 8.86719 17.4062C7.77344 18.9427 7.22656 21.0651 7.22656 23.7734C7.22656 25.7266 7.52604 27.4453 8.125 28.9297C8.72396 30.4141 9.54427 31.5859 10.5859 32.4453C11.6276 33.2786 12.8255 33.6953 14.1797 33.6953ZM28.9844 36L28.8672 34.2031L31.3281 33.5781C31.3281 33.4219 31.3281 33.1354 31.3281 32.7188C31.3542 32.276 31.3672 31.7682 31.3672 31.1953C31.3932 30.6224 31.4062 30.0365 31.4062 29.4375C31.4323 28.8125 31.4453 28.2266 31.4453 27.6797V21.4297C31.4453 20.3099 31.4323 19.3203 31.4062 18.4609C31.3802 17.6016 31.3411 16.9115 31.2891 16.3906C31.263 15.8698 31.224 15.5573 31.1719 15.4531L28.7109 14.8672L28.8281 13.0703H38.4375C41.25 13.0703 43.3464 13.5521 44.7266 14.5156C46.1068 15.4531 46.7969 16.9115 46.7969 18.8906C46.7969 20.1667 46.4193 21.3125 45.6641 22.3281C44.9089 23.3177 43.8672 24.099 42.5391 24.6719C41.2109 25.2448 39.6875 25.5312 37.9688 25.5312H35.5859V23.4609H37.3828C38.763 23.4609 39.8698 23.0573 40.7031 22.25C41.5365 21.4427 41.9531 20.362 41.9531 19.0078C41.9531 17.7318 41.6016 16.7682 40.8984 16.1172C40.1953 15.4401 39.1797 15.1016 37.8516 15.1016H36.0938C36.0677 15.1797 36.0417 15.362 36.0156 15.6484C36.0156 15.9349 36.0156 16.3255 36.0156 16.8203C36.0156 17.3151 36.0156 17.9141 36.0156 18.6172C36.0156 19.2943 36.0156 20.0885 36.0156 21V27.6797C36.0156 28.513 36.0156 29.3333 36.0156 30.1406C36.0417 30.9479 36.0677 31.6641 36.0938 32.2891C36.1458 32.888 36.1849 33.3177 36.2109 33.5781L38.4375 34.2031L38.3203 36H28.9844ZM48.75 36.4297C47.3958 36.4297 46.1849 36.2083 45.1172 35.7656C44.0755 35.2969 43.112 34.5677 42.2266 33.5781C41.3672 32.5885 40.5339 31.2995 39.7266 29.7109L37.3828 24.9062L41.2109 24.0078L45.7031 30.4141C46.3281 31.2734 46.9141 31.9896 47.4609 32.5625C48.0078 33.1094 48.5677 33.5391 49.1406 33.8516C49.7135 34.1641 50.3255 34.3984 50.9766 34.5547L50.9375 36.2344C50.5729 36.3125 50.2083 36.3646 49.8438 36.3906C49.4792 36.4167 49.1146 36.4297 48.75 36.4297ZM49.2578 36L49.1406 34.2031L51.1328 33.6172L59.1016 14.0469L62.0312 12.3672L70.8594 33.6172L72.8516 34.2031L72.7344 36H63.1641L63.0469 34.2031L65.5078 33.6172L63.3203 28.3047L62.8906 27.0156L58.8672 17.3281L59.9219 17.3672L56.4062 26.9375L56.0156 28.1094L54.1016 33.6172L56.5625 34.2031L56.4453 36H49.2578ZM55.1953 29.1641V26.7031C55.6901 26.7292 56.2891 26.7682 56.9922 26.8203C57.7214 26.8464 58.6458 26.8594 59.7656 26.8594C60.8594 26.8594 61.7708 26.8464 62.5 26.8203C63.2552 26.7682 63.8672 26.7292 64.3359 26.7031V29.125C63.7109 29.125 63.0208 29.112 62.2656 29.0859C61.5365 29.0599 60.7031 29.0469 59.7656 29.0469C58.8281 29.0469 57.9948 29.0599 57.2656 29.0859C56.5365 29.112 55.8464 29.138 55.1953 29.1641ZM61.6016 11.2344L59.4922 10.5312L62.8125 5.375L66.7969 6.27344L61.6016 11.2344ZM86.7578 36.3516C84.3099 36.3516 82.1354 35.9089 80.2344 35.0234C78.3333 34.138 76.8359 32.8359 75.7422 31.1172C74.6484 29.3984 74.1016 27.3021 74.1016 24.8281C74.1016 23.0312 74.4141 21.3906 75.0391 19.9062C75.6901 18.4219 76.6016 17.1458 77.7734 16.0781C78.9714 15.0104 80.3906 14.1901 82.0312 13.6172C83.6719 13.0182 85.4948 12.7188 87.5 12.7188C88.6458 12.7188 89.8177 12.8359 91.0156 13.0703C92.2135 13.3047 93.2422 13.6172 94.1016 14.0078L94.375 19.7891L92.1875 19.9453L90.8984 15.9609C90.4036 15.6745 89.8177 15.4661 89.1406 15.3359C88.4896 15.1797 87.8255 15.1016 87.1484 15.1016C85.4818 15.1016 84.0885 15.4792 82.9688 16.2344C81.875 16.9896 81.0417 18.0312 80.4688 19.3594C79.9219 20.6875 79.6484 22.224 79.6484 23.9688C79.6484 26.0521 80 27.8359 80.7031 29.3203C81.4062 30.8047 82.3438 31.9375 83.5156 32.7188C84.7135 33.5 86.0417 33.8906 87.5 33.8906C88.2031 33.8906 88.9193 33.7865 89.6484 33.5781C90.3776 33.3698 90.9896 33.0703 91.4844 32.6797L92.9688 29.125L95.3125 29.3594L94.1797 34.4375C93.3724 34.9323 92.2917 35.375 90.9375 35.7656C89.6094 36.1562 88.2161 36.3516 86.7578 36.3516ZM97.7344 13.0703H107.422L107.539 14.8672L105.078 15.4922C105.052 15.7005 105.026 16.0521 105 16.5469C104.974 17.0417 104.948 17.6927 104.922 18.5C104.922 19.2812 104.922 20.2578 104.922 21.4297V26.1172C104.922 27.6797 105.143 28.9818 105.586 30.0234C106.055 31.0391 106.719 31.8073 107.578 32.3281C108.438 32.8229 109.466 33.0703 110.664 33.0703C111.836 33.0703 112.826 32.8229 113.633 32.3281C114.44 31.8333 115.052 31.0651 115.469 30.0234C115.885 28.9557 116.094 27.6146 116.094 26V22.1328C116.094 20.8047 116.081 19.6589 116.055 18.6953C116.029 17.7318 116.003 16.9766 115.977 16.4297C115.951 15.8828 115.911 15.5703 115.859 15.4922L113.125 14.8672L113.242 13.0703H121.562L121.68 14.8672L119.219 15.4922C119.193 15.5703 119.167 15.8828 119.141 16.4297C119.115 16.9766 119.089 17.7318 119.062 18.6953C119.036 19.6589 119.023 20.8047 119.023 22.1328V26.5078C119.023 28.6172 118.646 30.401 117.891 31.8594C117.161 33.3177 116.12 34.4375 114.766 35.2188C113.411 35.974 111.836 36.3516 110.039 36.3516C106.914 36.3516 104.505 35.5182 102.812 33.8516C101.12 32.1849 100.273 29.8151 100.273 26.7422V21.4297C100.273 20.2318 100.26 19.2031 100.234 18.3438C100.208 17.4844 100.182 16.8203 100.156 16.3516C100.13 15.8568 100.104 15.5703 100.078 15.4922L97.6172 14.8672L97.7344 13.0703ZM142.031 36.2344C141.458 36.1823 140.833 36.1432 140.156 36.1172C139.479 36.0911 138.828 36.0651 138.203 36.0391C137.604 36.013 137.096 36 136.68 36H124.648L124.531 34.2031L126.992 33.6172C127.044 33.487 127.083 33.1484 127.109 32.6016C127.135 32.0547 127.148 31.3516 127.148 30.4922C127.174 29.6328 127.188 28.6953 127.188 27.6797V21.4297C127.188 20.362 127.174 19.4115 127.148 18.5781C127.148 17.7188 127.135 17.0156 127.109 16.4688C127.083 15.9219 127.044 15.5964 126.992 15.4922L124.531 14.8672L124.648 13.0703H135.195L135.312 14.9453L132.07 15.4922C132.044 15.5703 132.005 15.8698 131.953 16.3906C131.927 16.8854 131.901 17.5625 131.875 18.4219C131.849 19.2812 131.836 20.2839 131.836 21.4297V27.6797C131.836 29.138 131.849 30.349 131.875 31.3125C131.901 32.25 131.927 32.875 131.953 33.1875C132.37 33.2656 132.799 33.3177 133.242 33.3438C133.711 33.3698 134.271 33.3828 134.922 33.3828H136.758C137.383 33.3828 137.904 33.3568 138.32 33.3047C138.763 33.2526 139.154 33.2005 139.492 33.1484L141.641 29.0469L143.828 29.5938L142.031 36.2344ZM157.578 36.3516C155.234 36.3516 153.151 35.8568 151.328 34.8672C149.505 33.8776 148.073 32.5104 147.031 30.7656C145.99 29.0208 145.469 27.0156 145.469 24.75C145.469 22.4323 145.99 20.375 147.031 18.5781C148.073 16.7552 149.505 15.3229 151.328 14.2812C153.177 13.2396 155.273 12.7188 157.617 12.7188C159.909 12.7188 161.914 13.2135 163.633 14.2031C165.378 15.1667 166.745 16.5208 167.734 18.2656C168.724 19.9844 169.219 21.9896 169.219 24.2812C169.219 26.2083 168.867 27.9271 168.164 29.4375C167.487 30.9219 166.576 32.1849 165.43 33.2266C164.31 34.2422 163.06 35.0234 161.68 35.5703C160.326 36.0911 158.958 36.3516 157.578 36.3516ZM157.891 33.6953C159.167 33.6953 160.247 33.3698 161.133 32.7188C162.018 32.0417 162.682 31.0781 163.125 29.8281C163.594 28.5521 163.828 27.0286 163.828 25.2578C163.828 23.2005 163.542 21.4167 162.969 19.9062C162.422 18.3698 161.654 17.1849 160.664 16.3516C159.674 15.4922 158.503 15.0625 157.148 15.0625C155.221 15.0625 153.698 15.8438 152.578 17.4062C151.484 18.9427 150.938 21.0651 150.938 23.7734C150.938 25.7266 151.237 27.4453 151.836 28.9297C152.435 30.4141 153.255 31.5859 154.297 32.4453C155.339 33.2786 156.536 33.6953 157.891 33.6953Z" fill="white"/>
<ellipse cx="1.5" cy="4.5" rx="1.5" ry="4.5" transform="matrix(1 0 0 -1 14 31)" fill="white"/>
</svg>
