<svg width="72" height="33" viewBox="0 0 72 33" fill="none" xmlns="http://www.w3.org/2000/svg">
<rect width="72" height="33" rx="4" fill="white"/>
<path d="M16.256 23V11.8H18V21.432H22.912V23H16.256ZM27.3546 23.16C26.5173 23.16 25.8 22.976 25.2026 22.608C24.6106 22.2347 24.1573 21.7387 23.8426 21.12C23.5333 20.496 23.3786 19.808 23.3786 19.056C23.3786 18.2987 23.5333 17.608 23.8426 16.984C24.1573 16.36 24.6106 15.864 25.2026 15.496C25.8 15.1227 26.5173 14.936 27.3546 14.936C28.1973 14.936 28.9146 15.1227 29.5066 15.496C30.104 15.864 30.5573 16.36 30.8666 16.984C31.1813 17.608 31.3386 18.2987 31.3386 19.056C31.3386 19.808 31.1813 20.496 30.8666 21.12C30.5573 21.7387 30.104 22.2347 29.5066 22.608C28.9146 22.976 28.1973 23.16 27.3546 23.16ZM27.3546 21.728C28.0906 21.728 28.6533 21.488 29.0426 21.008C29.4373 20.528 29.6346 19.8773 29.6346 19.056C29.6346 18.2293 29.4373 17.5733 29.0426 17.088C28.6533 16.6027 28.0906 16.36 27.3546 16.36C26.6293 16.36 26.0693 16.6027 25.6746 17.088C25.28 17.5733 25.0826 18.2293 25.0826 19.056C25.0826 19.8773 25.28 20.528 25.6746 21.008C26.0693 21.488 26.6293 21.728 27.3546 21.728ZM35.9481 27.016C35.2228 27.016 34.5801 26.9253 34.0201 26.744C33.4601 26.5627 33.0201 26.2987 32.7001 25.952C32.3855 25.6107 32.2281 25.192 32.2281 24.696C32.2281 24.28 32.3455 23.9173 32.5801 23.608C32.8148 23.304 33.1428 23.048 33.5641 22.84C33.3295 22.712 33.1455 22.56 33.0121 22.384C32.8841 22.2027 32.8201 22.0027 32.8201 21.784C32.8201 21.5387 32.8921 21.32 33.0361 21.128C33.1855 20.936 33.4068 20.7787 33.7001 20.656C33.2735 20.3787 32.9481 20.0107 32.7241 19.552C32.5001 19.0933 32.3881 18.5893 32.3881 18.04C32.3881 17.4693 32.5135 16.9493 32.7641 16.48C33.0201 16.0053 33.3881 15.6293 33.8681 15.352C34.3535 15.0747 34.9401 14.936 35.6281 14.936C35.9908 14.936 36.3295 14.9867 36.6441 15.088C36.9641 15.184 37.2521 15.32 37.5081 15.496C37.7161 15.3787 37.9775 15.28 38.2921 15.2C38.6121 15.1147 38.9668 15.072 39.3561 15.072C39.4095 15.072 39.4601 15.072 39.5081 15.072C39.5561 15.072 39.6041 15.072 39.6521 15.072L39.4921 16.152C39.4068 16.152 39.3215 16.152 39.2361 16.152C39.1508 16.152 39.0655 16.152 38.9801 16.152C38.9268 16.152 38.8281 16.1573 38.6841 16.168C38.5401 16.1787 38.4015 16.1973 38.2681 16.224C38.4655 16.48 38.6148 16.7627 38.7161 17.072C38.8175 17.3813 38.8681 17.704 38.8681 18.04C38.8681 18.632 38.7401 19.1653 38.4841 19.64C38.2335 20.1147 37.8655 20.4933 37.3801 20.776C36.9001 21.0587 36.3161 21.2 35.6281 21.2C35.4575 21.2 35.2895 21.1893 35.1241 21.168C34.9641 21.1413 34.8095 21.1093 34.6601 21.072C34.4681 21.136 34.3721 21.2507 34.3721 21.416C34.3721 21.544 34.4495 21.6507 34.6041 21.736C34.7588 21.816 35.0041 21.8827 35.3401 21.936L37.1321 22.2C37.9855 22.328 38.6468 22.5733 39.1161 22.936C39.5908 23.2987 39.8281 23.816 39.8281 24.488C39.8281 25.0267 39.6708 25.4827 39.3561 25.856C39.0468 26.2347 38.6015 26.5227 38.0201 26.72C37.4388 26.9173 36.7481 27.016 35.9481 27.016ZM36.0601 25.64C36.7695 25.64 37.3108 25.5493 37.6841 25.368C38.0575 25.192 38.2441 24.9253 38.2441 24.568C38.2441 24.2693 38.1215 24.0427 37.8761 23.888C37.6308 23.7333 37.2628 23.6133 36.7721 23.528L34.7401 23.208C34.4628 23.3253 34.2228 23.4827 34.0201 23.68C33.8228 23.8827 33.7241 24.128 33.7241 24.416C33.7241 24.8373 33.9321 25.1467 34.3481 25.344C34.7695 25.5413 35.3401 25.64 36.0601 25.64ZM35.6281 19.912C36.1828 19.912 36.6015 19.7413 36.8841 19.4C37.1721 19.0533 37.3161 18.6027 37.3161 18.048C37.3161 17.504 37.1721 17.064 36.8841 16.728C36.6015 16.3867 36.1828 16.216 35.6281 16.216C35.0735 16.216 34.6521 16.3867 34.3641 16.728C34.0815 17.064 33.9401 17.504 33.9401 18.048C33.9401 18.6027 34.0815 19.0533 34.3641 19.4C34.6521 19.7413 35.0735 19.912 35.6281 19.912ZM44.3583 23V15.096H46.0303V23H44.3583ZM44.3583 13.56V11.8H46.0303V13.56H44.3583ZM47.9364 23V15.096H49.3684L49.5684 16.592L49.0564 16.192C49.4884 15.744 49.939 15.424 50.4084 15.232C50.8777 15.04 51.3684 14.944 51.8804 14.944C52.9737 14.944 53.7684 15.28 54.2644 15.952C54.7604 16.6187 55.0084 17.5067 55.0084 18.616V23H53.3364V18.688C53.3364 17.8933 53.195 17.3093 52.9124 16.936C52.6297 16.5627 52.1524 16.376 51.4804 16.376C50.9844 16.376 50.547 16.4907 50.1684 16.72C49.795 16.944 49.523 17.28 49.3524 17.728L49.6084 16.808V23H47.9364Z" fill="#394370"/>
</svg>
