<svg width="248" height="66" viewBox="0 0 248 66" fill="none" xmlns="http://www.w3.org/2000/svg">
<path d="M20.1074 52.5098C16.709 52.5098 13.6882 51.7923 11.0449 50.3574C8.40169 48.9225 6.32487 46.9401 4.81445 44.4102C3.30404 41.8802 2.54883 38.9727 2.54883 35.6875C2.54883 32.3268 3.30404 29.3438 4.81445 26.7383C6.32487 24.0951 8.40169 22.0182 11.0449 20.5078C13.7259 18.9974 16.7656 18.2422 20.1641 18.2422C23.487 18.2422 26.3945 18.9596 28.8867 20.3945C31.4167 21.7917 33.3991 23.7552 34.834 26.2852C36.2689 28.7773 36.9863 31.6849 36.9863 35.0078C36.9863 37.8021 36.4766 40.2943 35.457 42.4844C34.4753 44.6367 33.1536 46.4681 31.4922 47.9785C29.8685 49.4512 28.056 50.584 26.0547 51.377C24.0911 52.1322 22.1087 52.5098 20.1074 52.5098ZM20.5605 48.6582C22.4108 48.6582 23.9779 48.1862 25.2617 47.2422C26.5456 46.2604 27.5085 44.8633 28.1504 43.0508C28.8301 41.2005 29.1699 38.9915 29.1699 36.4238C29.1699 33.4408 28.7546 30.8542 27.9238 28.6641C27.1309 26.4362 26.0169 24.7181 24.582 23.5098C23.1471 22.2637 21.4479 21.6406 19.4844 21.6406C16.6901 21.6406 14.4811 22.7734 12.8574 25.0391C11.2715 27.2669 10.4785 30.3444 10.4785 34.2715C10.4785 37.1035 10.9128 39.5957 11.7812 41.748C12.6497 43.9004 13.8392 45.5996 15.3496 46.8457C16.86 48.054 18.597 48.6582 20.5605 48.6582ZM42.0273 52L41.8574 49.3945L45.4258 48.4883C45.4258 48.2617 45.4258 47.8464 45.4258 47.2422C45.4635 46.6003 45.4824 45.8639 45.4824 45.0332C45.5202 44.2025 45.5391 43.3529 45.5391 42.4844C45.5768 41.5781 45.5957 40.7285 45.5957 39.9355V30.873C45.5957 29.2493 45.5768 27.8145 45.5391 26.5684C45.5013 25.3223 45.4447 24.3216 45.3691 23.5664C45.3314 22.8112 45.2747 22.3581 45.1992 22.207L41.6309 21.3574L41.8008 18.752H55.7344C59.8125 18.752 62.8522 19.4505 64.8535 20.8477C66.8548 22.207 67.8555 24.3216 67.8555 27.1914C67.8555 29.0417 67.3079 30.7031 66.2129 32.1758C65.1178 33.6107 63.6074 34.7435 61.6816 35.5742C59.7559 36.4049 57.5469 36.8203 55.0547 36.8203H51.5996V33.8184H54.2051C56.2064 33.8184 57.8112 33.2331 59.0195 32.0625C60.2279 30.8919 60.832 29.3249 60.832 27.3613C60.832 25.5111 60.3223 24.1139 59.3027 23.1699C58.2832 22.1882 56.8105 21.6973 54.8848 21.6973H52.3359C52.2982 21.8105 52.2604 22.0749 52.2227 22.4902C52.2227 22.9056 52.2227 23.472 52.2227 24.1895C52.2227 24.9069 52.2227 25.7754 52.2227 26.7949C52.2227 27.7767 52.2227 28.9284 52.2227 30.25V39.9355C52.2227 41.1439 52.2227 42.3333 52.2227 43.5039C52.2604 44.6745 52.2982 45.7129 52.3359 46.6191C52.4115 47.4876 52.4681 48.1107 52.5059 48.4883L55.7344 49.3945L55.5645 52H42.0273ZM70.6875 52.623C68.724 52.623 66.9681 52.3021 65.4199 51.6602C63.9095 50.9805 62.5124 49.9232 61.2285 48.4883C59.9824 47.0534 58.7741 45.1842 57.6035 42.8809L54.2051 35.9141L59.7559 34.6113L66.2695 43.9004C67.1758 45.1465 68.0254 46.1849 68.8184 47.0156C69.6113 47.8086 70.4232 48.4316 71.2539 48.8848C72.0846 49.3379 72.972 49.6777 73.916 49.9043L73.8594 52.3398C73.3307 52.4531 72.8021 52.5286 72.2734 52.5664C71.7448 52.6042 71.2161 52.623 70.6875 52.623ZM71.4238 52L71.2539 49.3945L74.1426 48.5449L85.6973 20.168L89.9453 17.7324L102.746 48.5449L105.635 49.3945L105.465 52H91.5879L91.418 49.3945L94.9863 48.5449L91.8145 40.8418L91.1914 38.9727L85.3574 24.9258L86.8867 24.9824L81.7891 38.8594L81.2227 40.5586L78.4473 48.5449L82.0156 49.3945L81.8457 52H71.4238ZM80.0332 42.0879V38.5195C80.7507 38.5573 81.6191 38.6139 82.6387 38.6895C83.696 38.7272 85.0365 38.7461 86.6602 38.7461C88.2461 38.7461 89.5677 38.7272 90.625 38.6895C91.7201 38.6139 92.6074 38.5573 93.2871 38.5195V42.0312C92.3809 42.0312 91.3802 42.0124 90.2852 41.9746C89.2279 41.9368 88.0195 41.918 86.6602 41.918C85.3008 41.918 84.0924 41.9368 83.0352 41.9746C81.9779 42.0124 80.9772 42.0501 80.0332 42.0879ZM89.3223 16.0898L86.2637 15.0703L91.0781 7.59375L96.8555 8.89648L89.3223 16.0898ZM125.799 52.5098C122.249 52.5098 119.096 51.8678 116.34 50.584C113.583 49.3001 111.412 47.4121 109.826 44.9199C108.24 42.4277 107.447 39.388 107.447 35.8008C107.447 33.1953 107.9 30.8164 108.807 28.6641C109.751 26.5117 111.072 24.6615 112.771 23.1133C114.508 21.5651 116.566 20.3757 118.945 19.5449C121.324 18.6764 123.967 18.2422 126.875 18.2422C128.536 18.2422 130.236 18.4121 131.973 18.752C133.71 19.0918 135.201 19.5449 136.447 20.1113L136.844 28.4941L133.672 28.7207L131.803 22.9434C131.085 22.528 130.236 22.2259 129.254 22.0371C128.31 21.8105 127.347 21.6973 126.365 21.6973C123.949 21.6973 121.928 22.2448 120.305 23.3398C118.719 24.4349 117.51 25.9453 116.68 27.8711C115.887 29.7969 115.49 32.0247 115.49 34.5547C115.49 37.5755 116 40.1621 117.02 42.3145C118.039 44.4668 119.398 46.1094 121.098 47.2422C122.835 48.375 124.76 48.9414 126.875 48.9414C127.895 48.9414 128.933 48.7904 129.99 48.4883C131.048 48.1862 131.935 47.752 132.652 47.1855L134.805 42.0312L138.203 42.3711L136.561 49.7344C135.39 50.4518 133.823 51.0938 131.859 51.6602C129.934 52.2266 127.913 52.5098 125.799 52.5098ZM141.715 18.752H155.762L155.932 21.3574L152.363 22.2637C152.326 22.5658 152.288 23.0755 152.25 23.793C152.212 24.5104 152.174 25.4544 152.137 26.625C152.137 27.7578 152.137 29.1738 152.137 30.873V37.6699C152.137 39.9355 152.458 41.8236 153.1 43.334C153.779 44.8066 154.742 45.9206 155.988 46.6758C157.234 47.3932 158.726 47.752 160.463 47.752C162.162 47.752 163.597 47.3932 164.768 46.6758C165.938 45.9583 166.826 44.8444 167.43 43.334C168.034 41.7858 168.336 39.8411 168.336 37.5V31.8926C168.336 29.9668 168.317 28.3053 168.279 26.9082C168.242 25.5111 168.204 24.416 168.166 23.623C168.128 22.8301 168.072 22.377 167.996 22.2637L164.031 21.3574L164.201 18.752H176.266L176.436 21.3574L172.867 22.2637C172.829 22.377 172.792 22.8301 172.754 23.623C172.716 24.416 172.678 25.5111 172.641 26.9082C172.603 28.3053 172.584 29.9668 172.584 31.8926V38.2363C172.584 41.2949 172.036 43.8815 170.941 45.9961C169.884 48.1107 168.374 49.7344 166.41 50.8672C164.447 51.9622 162.162 52.5098 159.557 52.5098C155.025 52.5098 151.533 51.3014 149.078 48.8848C146.624 46.4681 145.396 43.0319 145.396 38.5762V30.873C145.396 29.1361 145.378 27.6445 145.34 26.3984C145.302 25.1523 145.264 24.1895 145.227 23.5098C145.189 22.7923 145.151 22.377 145.113 22.2637L141.545 21.3574L141.715 18.752ZM205.945 52.3398C205.115 52.2643 204.208 52.2077 203.227 52.1699C202.245 52.1322 201.301 52.0944 200.395 52.0566C199.526 52.0189 198.79 52 198.186 52H180.74L180.57 49.3945L184.139 48.5449C184.214 48.3561 184.271 47.8652 184.309 47.0723C184.346 46.2793 184.365 45.2598 184.365 44.0137C184.403 42.7676 184.422 41.4082 184.422 39.9355V30.873C184.422 29.3249 184.403 27.9466 184.365 26.7383C184.365 25.4922 184.346 24.4727 184.309 23.6797C184.271 22.8867 184.214 22.4147 184.139 22.2637L180.57 21.3574L180.74 18.752H196.033L196.203 21.4707L191.502 22.2637C191.464 22.377 191.408 22.8112 191.332 23.5664C191.294 24.2839 191.257 25.2656 191.219 26.5117C191.181 27.7578 191.162 29.2116 191.162 30.873V39.9355C191.162 42.0501 191.181 43.806 191.219 45.2031C191.257 46.5625 191.294 47.4688 191.332 47.9219C191.936 48.0352 192.559 48.1107 193.201 48.1484C193.881 48.1862 194.693 48.2051 195.637 48.2051H198.299C199.205 48.2051 199.96 48.1673 200.564 48.0918C201.206 48.0163 201.773 47.9408 202.264 47.8652L205.379 41.918L208.551 42.7109L205.945 52.3398ZM228.488 52.5098C225.09 52.5098 222.069 51.7923 219.426 50.3574C216.783 48.9225 214.706 46.9401 213.195 44.4102C211.685 41.8802 210.93 38.9727 210.93 35.6875C210.93 32.3268 211.685 29.3438 213.195 26.7383C214.706 24.0951 216.783 22.0182 219.426 20.5078C222.107 18.9974 225.146 18.2422 228.545 18.2422C231.868 18.2422 234.775 18.9596 237.268 20.3945C239.798 21.7917 241.78 23.7552 243.215 26.2852C244.65 28.7773 245.367 31.6849 245.367 35.0078C245.367 37.8021 244.857 40.2943 243.838 42.4844C242.856 44.6367 241.535 46.4681 239.873 47.9785C238.249 49.4512 236.437 50.584 234.436 51.377C232.472 52.1322 230.49 52.5098 228.488 52.5098ZM228.941 48.6582C230.792 48.6582 232.359 48.1862 233.643 47.2422C234.926 46.2604 235.889 44.8633 236.531 43.0508C237.211 41.2005 237.551 38.9915 237.551 36.4238C237.551 33.4408 237.135 30.8542 236.305 28.6641C235.512 26.4362 234.398 24.7181 232.963 23.5098C231.528 22.2637 229.829 21.6406 227.865 21.6406C225.071 21.6406 222.862 22.7734 221.238 25.0391C219.652 27.2669 218.859 30.3444 218.859 34.2715C218.859 37.1035 219.294 39.5957 220.162 41.748C221.031 43.9004 222.22 45.5996 223.73 46.8457C225.241 48.054 226.978 48.6582 228.941 48.6582Z" fill="white"/>
<ellipse cx="2" cy="6" rx="2" ry="6" transform="matrix(1 0 0 -1 14 45)" fill="white"/>
</svg>
