<svg width="319" height="260" viewBox="0 0 319 260" fill="none" xmlns="http://www.w3.org/2000/svg">
<path d="M0 6C0 2.68629 2.68629 0 6 0H301C304.314 0 307 2.68629 307 6V253.583C307 256.897 304.314 259.583 301 259.583H5.99999C2.68628 259.583 0 256.897 0 253.583V6Z" fill="#394370"/>
<path d="M312 22H313C316.314 22 319 24.6863 319 28V229C319 232.314 316.314 235 313 235H312V22Z" fill="#394370"/>
<path d="M10 46.4221C10 44.213 11.7909 42.4221 14 42.4221H293C295.209 42.4221 297 44.213 297 46.4221V245.483C297 247.692 295.209 249.483 293 249.483H14C11.7909 249.483 10 247.692 10 245.483V46.4221Z" fill="white"/>
<path d="M13 74.593C13 72.9451 14.3359 71.6093 15.9837 71.6093H291.016C292.664 71.6093 294 72.9451 294 74.593H13Z" fill="#394370"/>
<path d="M13 111.392C13 109.744 14.3359 108.408 15.9837 108.408H291.016C292.664 108.408 294 109.744 294 111.392H13Z" fill="#394370"/>
<path d="M13 218.806C13 217.158 14.3359 215.822 15.9837 215.822H291.016C292.664 215.822 294 217.158 294 218.806H13Z" fill="#394370"/>
<path d="M13 183.001C13 181.354 14.3359 180.018 15.9837 180.018H291.016C292.664 180.018 294 181.354 294 183.001H13Z" fill="#394370"/>
<path d="M16 147.197C16 145.549 17.3359 144.213 18.9837 144.213H294.016C295.664 144.213 297 145.549 297 147.197H16Z" fill="#394370"/>
<rect x="255" y="74.5929" width="3" height="175.045" fill="#394370"/>
<rect x="50" y="74.5929" width="3" height="175.045" fill="#394370"/>
<rect x="91" y="74.5929" width="3" height="175.045" fill="#394370"/>
<rect x="214" y="74.5929" width="3" height="175.045" fill="#394370"/>
<rect x="173" y="74.5929" width="3" height="175.045" fill="#394370"/>
<rect x="132" y="74.5929" width="3" height="175.045" fill="#394370"/>
<path d="M20.8164 53.1335H26.7461C29.0664 53.1335 30.8711 53.6778 32.1602 54.7664C33.4635 55.8406 34.1152 57.3445 34.1152 59.2781C34.1152 60.5242 33.8073 61.6414 33.1914 62.6296C32.5755 63.6036 31.7305 64.3699 30.6562 64.9285C29.582 65.4727 28.3503 65.7449 26.9609 65.7449H20.8164L20.752 64.6707L22.127 64.3269C22.1699 64.2266 22.2057 63.8686 22.2344 63.2527C22.263 62.6225 22.2773 61.8777 22.2773 61.0183V57.8601C22.2773 56.9721 22.263 56.2201 22.2344 55.6042C22.2057 54.974 22.1699 54.616 22.127 54.53L20.752 54.2078L20.8164 53.1335ZM25.2207 54.5515C25.2207 54.6518 25.2135 54.8451 25.1992 55.1316C25.1992 55.4037 25.1921 55.769 25.1777 56.2273C25.1777 56.6713 25.1777 57.2156 25.1777 57.8601V61.0183C25.1777 61.3907 25.1777 61.7846 25.1777 62.2C25.1921 62.601 25.2064 62.9734 25.2207 63.3171C25.2493 63.6609 25.2708 63.933 25.2852 64.1335C25.6003 64.1908 25.9225 64.241 26.252 64.2839C26.5814 64.3126 26.8893 64.3269 27.1758 64.3269C28.3932 64.3269 29.3099 63.976 29.9258 63.2742C30.556 62.5723 30.8711 61.4623 30.8711 59.9441C30.8711 58.9415 30.7565 58.0893 30.5273 57.3875C30.2982 56.6856 29.9831 56.1199 29.582 55.6902C29.181 55.2605 28.7227 54.9454 28.207 54.7449C27.6914 54.5444 27.14 54.4441 26.5527 54.4441C26.3379 54.4441 26.1159 54.4584 25.8867 54.4871C25.6719 54.5014 25.4499 54.5229 25.2207 54.5515ZM40.9902 65.9167C39.9876 65.9167 39.1068 65.7162 38.3477 65.3152C37.5885 64.8998 36.9941 64.3341 36.5645 63.6179C36.1348 62.8875 35.9199 62.0567 35.9199 61.1257C35.9199 60.0658 36.1634 59.1635 36.6504 58.4187C37.1374 57.6739 37.7747 57.1082 38.5625 56.7214C39.3503 56.3347 40.1882 56.1414 41.0762 56.1414C42.0215 56.1414 42.8522 56.3419 43.5684 56.7429C44.2988 57.144 44.8646 57.7097 45.2656 58.4402C45.681 59.1563 45.8887 59.9799 45.8887 60.9109C45.8887 61.8562 45.6667 62.7084 45.2227 63.4675C44.793 64.2123 44.2057 64.8067 43.4609 65.2507C42.7161 65.6947 41.8926 65.9167 40.9902 65.9167ZM41.2051 64.5417C41.5632 64.5417 41.8639 64.4272 42.1074 64.198C42.3652 63.9688 42.5586 63.6322 42.6875 63.1882C42.8307 62.7442 42.9023 62.2143 42.9023 61.5984C42.9023 60.3666 42.7018 59.364 42.3008 58.5906C41.9141 57.8171 41.3913 57.4304 40.7324 57.4304C40.1882 57.4304 39.7585 57.7097 39.4434 58.2683C39.1283 58.8126 38.9707 59.5574 38.9707 60.5027C38.9707 61.2618 39.0638 61.9493 39.25 62.5652C39.4505 63.1811 39.7155 63.6681 40.0449 64.0261C40.3887 64.3699 40.7754 64.5417 41.2051 64.5417Z" fill="#394370"/>
<path d="M230.027 65.9382C229.426 65.9382 228.76 65.8523 228.029 65.6804C227.313 65.5085 226.697 65.2794 226.182 64.9929L226.074 61.8132L227.449 61.7273L228.18 63.9402C228.466 64.1264 228.803 64.2768 229.189 64.3914C229.59 64.4916 229.97 64.5417 230.328 64.5417C230.973 64.5417 231.46 64.4057 231.789 64.1335C232.133 63.8614 232.305 63.4962 232.305 63.0378C232.305 62.5365 232.154 62.1355 231.854 61.8347C231.567 61.5339 231.188 61.2761 230.715 61.0613C230.242 60.8464 229.741 60.6388 229.211 60.4382C228.681 60.2234 228.18 59.9727 227.707 59.6863C227.234 59.3855 226.848 59.0059 226.547 58.5476C226.26 58.075 226.117 57.4806 226.117 56.7644C226.117 55.991 226.332 55.3178 226.762 54.7449C227.206 54.1576 227.822 53.7065 228.609 53.3914C229.411 53.0619 230.335 52.8972 231.381 52.8972C231.71 52.8972 232.061 52.9187 232.434 52.9617C232.82 53.0046 233.193 53.0763 233.551 53.1765C233.909 53.2625 234.224 53.3627 234.496 53.4773L234.732 56.614L233.379 56.7L232.691 54.5945C232.247 54.3653 231.739 54.2507 231.166 54.2507C230.579 54.2507 230.092 54.4011 229.705 54.7019C229.333 54.9884 229.146 55.3966 229.146 55.9265C229.146 56.3992 229.297 56.7931 229.598 57.1082C229.898 57.4089 230.285 57.6739 230.758 57.9031C231.23 58.1179 231.732 58.3328 232.262 58.5476C232.806 58.7625 233.314 59.0203 233.787 59.321C234.274 59.6075 234.668 59.9727 234.969 60.4167C235.27 60.8608 235.42 61.4265 235.42 62.114C235.42 62.8445 235.191 63.5033 234.732 64.0906C234.288 64.6635 233.658 65.1147 232.842 65.4441C232.04 65.7735 231.102 65.9382 230.027 65.9382ZM246.592 65.7449H241.414L241.35 64.7566L242.359 64.3914L240.469 61.9851L239.738 61.0828L237.031 57.6453L236.021 57.3015L236.086 56.3132H241.199L241.264 57.3015L240.361 57.6453L241.865 59.5789L242.574 60.5242L245.646 64.3914L246.656 64.7566L246.592 65.7449ZM243.326 57.6453L242.424 57.3015L242.488 56.3132H246.055L246.119 57.3015L245.109 57.6453L242.574 60.5242L240.469 61.9851L238.75 64.3914L239.76 64.7566L239.695 65.7449H236.021L235.957 64.7566L236.967 64.3914L239.738 61.0828L241.865 59.5789L243.326 57.6453Z" fill="#394370"/>
<path d="M270.027 65.9382C269.426 65.9382 268.76 65.8523 268.029 65.6804C267.313 65.5085 266.697 65.2794 266.182 64.9929L266.074 61.8132L267.449 61.7273L268.18 63.9402C268.466 64.1264 268.803 64.2768 269.189 64.3914C269.59 64.4916 269.97 64.5417 270.328 64.5417C270.973 64.5417 271.46 64.4057 271.789 64.1335C272.133 63.8614 272.305 63.4962 272.305 63.0378C272.305 62.5365 272.154 62.1355 271.854 61.8347C271.567 61.5339 271.188 61.2761 270.715 61.0613C270.242 60.8464 269.741 60.6388 269.211 60.4382C268.681 60.2234 268.18 59.9727 267.707 59.6863C267.234 59.3855 266.848 59.0059 266.547 58.5476C266.26 58.075 266.117 57.4806 266.117 56.7644C266.117 55.991 266.332 55.3178 266.762 54.7449C267.206 54.1576 267.822 53.7065 268.609 53.3914C269.411 53.0619 270.335 52.8972 271.381 52.8972C271.71 52.8972 272.061 52.9187 272.434 52.9617C272.82 53.0046 273.193 53.0763 273.551 53.1765C273.909 53.2625 274.224 53.3627 274.496 53.4773L274.732 56.614L273.379 56.7L272.691 54.5945C272.247 54.3653 271.739 54.2507 271.166 54.2507C270.579 54.2507 270.092 54.4011 269.705 54.7019C269.333 54.9884 269.146 55.3966 269.146 55.9265C269.146 56.3992 269.297 56.7931 269.598 57.1082C269.898 57.4089 270.285 57.6739 270.758 57.9031C271.23 58.1179 271.732 58.3328 272.262 58.5476C272.806 58.7625 273.314 59.0203 273.787 59.321C274.274 59.6075 274.668 59.9727 274.969 60.4167C275.27 60.8608 275.42 61.4265 275.42 62.114C275.42 62.8445 275.191 63.5033 274.732 64.0906C274.288 64.6635 273.658 65.1147 272.842 65.4441C272.04 65.7735 271.102 65.9382 270.027 65.9382ZM280.039 65.9167C279.38 65.9167 278.807 65.7735 278.32 65.4871C277.848 65.2006 277.482 64.8569 277.225 64.4558C276.981 64.0548 276.859 63.6752 276.859 63.3171C276.859 62.8015 277.017 62.3718 277.332 62.0281C277.661 61.67 278.163 61.3907 278.836 61.1902L282.209 60.2019V59.4285C282.209 59.1277 282.109 58.8484 281.908 58.5906C281.722 58.3184 281.471 58.0964 281.156 57.9246C280.841 57.7527 280.505 57.6667 280.146 57.6667C279.917 57.6667 279.753 57.724 279.652 57.8386C279.566 57.9389 279.509 58.1466 279.48 58.4617L279.373 59.7722C278.657 59.9154 278.07 59.894 277.611 59.7078C277.167 59.5072 276.945 59.185 276.945 58.741C276.945 58.4688 277.089 58.1895 277.375 57.9031C277.661 57.6166 278.012 57.3516 278.428 57.1082C278.857 56.8503 279.294 56.6355 279.738 56.4636C280.182 56.2774 280.569 56.17 280.898 56.1414C282.173 56.1414 283.183 56.435 283.928 57.0222C284.673 57.5951 285.052 58.3686 285.066 59.3425L285.002 62.3289C285.002 62.7299 285.009 63.045 285.023 63.2742C285.052 63.5033 285.095 63.6895 285.152 63.8328L286.57 64.0906V64.9929L285.174 65.5945C284.916 65.6947 284.68 65.7735 284.465 65.8308C284.25 65.8881 284.042 65.9167 283.842 65.9167C283.283 65.9167 282.889 65.6303 282.66 65.0574L282.295 64.0691L282.746 64.1765C282.302 64.7208 281.844 65.1505 281.371 65.4656C280.913 65.7664 280.469 65.9167 280.039 65.9167ZM281.135 63.9832C281.335 63.9832 281.529 63.9473 281.715 63.8757C281.901 63.7898 282.073 63.6681 282.23 63.5105V61.405L280.77 61.6843C280.411 61.7273 280.154 61.8347 279.996 62.0066C279.853 62.1785 279.781 62.4076 279.781 62.6941C279.781 63.0235 279.91 63.3243 280.168 63.5964C280.44 63.8542 280.762 63.9832 281.135 63.9832Z" fill="#394370"/>
<path d="M186.031 64.8816C184.833 64.8816 183.766 64.6407 182.828 64.1589C181.904 63.6641 181.174 62.9871 180.641 62.1277C180.12 61.2683 179.859 60.2787 179.859 59.1589C179.859 57.9871 180.12 56.9454 180.641 56.0339C181.174 55.1225 181.91 54.4063 182.848 53.8855C183.785 53.3647 184.846 53.1042 186.031 53.1042C187.203 53.1042 188.232 53.3516 189.117 53.8464C190.003 54.3282 190.693 54.9988 191.188 55.8582C191.695 56.7175 191.949 57.7201 191.949 58.866C191.949 59.8556 191.773 60.7279 191.422 61.4832C191.07 62.2253 190.615 62.8438 190.055 63.3386C189.495 63.8334 188.883 64.2045 188.219 64.4519C187.555 64.6993 186.917 64.823 186.305 64.823L186.031 64.8816ZM190.895 67.616C190.191 67.616 189.566 67.5444 189.02 67.4011C188.486 67.2709 188.004 67.0886 187.574 66.8542C187.158 66.6199 186.767 66.3529 186.402 66.0535C186.181 65.8582 185.966 65.6824 185.758 65.5261C185.562 65.3829 185.374 65.2462 185.191 65.116C185.022 64.9988 184.846 64.8881 184.664 64.7839C184.495 64.6928 184.319 64.6082 184.137 64.53H187.066C187.548 64.53 188.056 64.5951 188.59 64.7253C189.137 64.8425 189.625 65.0313 190.055 65.2917C190.497 65.5391 190.875 65.7149 191.188 65.8191C191.5 65.9233 191.832 65.9753 192.184 65.9753C192.353 65.9753 192.542 65.9623 192.75 65.9363C192.971 65.9102 193.199 65.8647 193.434 65.7996L193.688 66.8542C193.349 67.0756 192.939 67.2579 192.457 67.4011C191.988 67.5444 191.467 67.616 190.895 67.616ZM186.168 63.4753C186.767 63.4753 187.268 63.3191 187.672 63.0066C188.076 62.6811 188.382 62.2188 188.59 61.6199C188.798 61.0079 188.902 60.2527 188.902 59.3542C188.902 58.3516 188.772 57.4792 188.512 56.7371C188.264 55.9949 187.906 55.422 187.438 55.0183C186.982 54.6016 186.435 54.3933 185.797 54.3933C184.911 54.3933 184.215 54.7644 183.707 55.5066C183.199 56.2488 182.945 57.2774 182.945 58.5925C182.945 59.5561 183.082 60.4024 183.355 61.1316C183.629 61.8608 184.007 62.4337 184.488 62.8503C184.983 63.267 185.543 63.4753 186.168 63.4753ZM202.652 62.9871L203.941 63.2605V64.1003L200.621 64.9988L200.094 64.7058L200.113 63.3386L200.055 63.3191C199.677 63.9181 199.267 64.3412 198.824 64.5886C198.395 64.823 197.945 64.9402 197.477 64.9402C196.539 64.9402 195.777 64.6472 195.191 64.0613C194.605 63.4623 194.312 62.5769 194.312 61.405V59.7449C194.312 59.4584 194.306 59.1785 194.293 58.905C194.28 58.6316 194.26 58.3582 194.234 58.0847L192.906 57.8113V56.9324L196.422 56.0535L196.969 56.3855C196.943 56.7761 196.917 57.2449 196.891 57.7917C196.865 58.3386 196.852 58.8985 196.852 59.4714L196.832 61.1121C196.832 61.7891 196.982 62.2839 197.281 62.5964C197.581 62.9089 197.991 63.0652 198.512 63.0652C198.772 63.0652 199.039 62.9936 199.312 62.8503C199.599 62.7071 199.84 62.4727 200.035 62.1472V60.2527C200.035 59.9402 200.035 59.6667 200.035 59.4324C200.035 59.185 200.022 58.9571 199.996 58.7488C199.983 58.5274 199.964 58.3061 199.938 58.0847L198.551 57.8113V56.9324L202.086 56.0535L202.613 56.3855C202.587 56.6069 202.568 56.8542 202.555 57.1277C202.555 57.4011 202.548 57.7201 202.535 58.0847C202.535 58.4363 202.535 58.8399 202.535 59.2957V60.8582C202.535 61.1707 202.542 61.5092 202.555 61.8738C202.581 62.2253 202.613 62.5964 202.652 62.9871ZM204.449 64.7449L204.391 63.8269L205.699 63.5144C205.712 63.4623 205.725 63.3451 205.738 63.1628C205.751 62.9675 205.764 62.7332 205.777 62.4597C205.79 62.1863 205.797 61.8868 205.797 61.5613L205.816 60.0964C205.816 59.7058 205.803 59.3542 205.777 59.0417C205.751 58.7292 205.706 58.4102 205.641 58.0847L204.332 57.8113V56.9324L207.926 56.0535L208.453 56.3855C208.414 56.8022 208.382 57.2253 208.355 57.655C208.342 58.0717 208.336 58.547 208.336 59.0808V61.5417C208.336 61.9714 208.342 62.3816 208.355 62.7722C208.382 63.1628 208.408 63.4102 208.434 63.5144L209.742 63.8269L209.684 64.7449H204.449ZM207.086 54.4519C206.565 54.4519 206.155 54.2957 205.855 53.9832C205.556 53.6576 205.406 53.2865 205.406 52.8699C205.406 52.4532 205.556 52.0886 205.855 51.7761C206.155 51.4506 206.565 51.2878 207.086 51.2878C207.607 51.2878 208.01 51.4506 208.297 51.7761C208.583 52.0886 208.727 52.4532 208.727 52.8699C208.727 53.2865 208.583 53.6576 208.297 53.9832C208.01 54.2957 207.607 54.4519 207.086 54.4519Z" fill="#394370"/>
<path d="M143.031 64.8816C141.833 64.8816 140.766 64.6407 139.828 64.1589C138.904 63.6641 138.174 62.9871 137.641 62.1277C137.12 61.2683 136.859 60.2787 136.859 59.1589C136.859 57.9871 137.12 56.9454 137.641 56.0339C138.174 55.1225 138.91 54.4063 139.848 53.8855C140.785 53.3647 141.846 53.1042 143.031 53.1042C144.203 53.1042 145.232 53.3516 146.117 53.8464C147.003 54.3282 147.693 54.9988 148.188 55.8582C148.695 56.7175 148.949 57.7201 148.949 58.866C148.949 59.8556 148.773 60.7279 148.422 61.4832C148.07 62.2253 147.615 62.8438 147.055 63.3386C146.495 63.8334 145.883 64.2045 145.219 64.4519C144.555 64.6993 143.917 64.823 143.305 64.823L143.031 64.8816ZM147.895 67.616C147.191 67.616 146.566 67.5444 146.02 67.4011C145.486 67.2709 145.004 67.0886 144.574 66.8542C144.158 66.6199 143.767 66.3529 143.402 66.0535C143.181 65.8582 142.966 65.6824 142.758 65.5261C142.562 65.3829 142.374 65.2462 142.191 65.116C142.022 64.9988 141.846 64.8881 141.664 64.7839C141.495 64.6928 141.319 64.6082 141.137 64.53H144.066C144.548 64.53 145.056 64.5951 145.59 64.7253C146.137 64.8425 146.625 65.0313 147.055 65.2917C147.497 65.5391 147.875 65.7149 148.188 65.8191C148.5 65.9233 148.832 65.9753 149.184 65.9753C149.353 65.9753 149.542 65.9623 149.75 65.9363C149.971 65.9102 150.199 65.8647 150.434 65.7996L150.688 66.8542C150.349 67.0756 149.939 67.2579 149.457 67.4011C148.988 67.5444 148.467 67.616 147.895 67.616ZM143.168 63.4753C143.767 63.4753 144.268 63.3191 144.672 63.0066C145.076 62.6811 145.382 62.2188 145.59 61.6199C145.798 61.0079 145.902 60.2527 145.902 59.3542C145.902 58.3516 145.772 57.4792 145.512 56.7371C145.264 55.9949 144.906 55.422 144.438 55.0183C143.982 54.6016 143.435 54.3933 142.797 54.3933C141.911 54.3933 141.215 54.7644 140.707 55.5066C140.199 56.2488 139.945 57.2774 139.945 58.5925C139.945 59.5561 140.082 60.4024 140.355 61.1316C140.629 61.8608 141.007 62.4337 141.488 62.8503C141.983 63.267 142.543 63.4753 143.168 63.4753ZM159.652 62.9871L160.941 63.2605V64.1003L157.621 64.9988L157.094 64.7058L157.113 63.3386L157.055 63.3191C156.677 63.9181 156.267 64.3412 155.824 64.5886C155.395 64.823 154.945 64.9402 154.477 64.9402C153.539 64.9402 152.777 64.6472 152.191 64.0613C151.605 63.4623 151.312 62.5769 151.312 61.405V59.7449C151.312 59.4584 151.306 59.1785 151.293 58.905C151.28 58.6316 151.26 58.3582 151.234 58.0847L149.906 57.8113V56.9324L153.422 56.0535L153.969 56.3855C153.943 56.7761 153.917 57.2449 153.891 57.7917C153.865 58.3386 153.852 58.8985 153.852 59.4714L153.832 61.1121C153.832 61.7891 153.982 62.2839 154.281 62.5964C154.581 62.9089 154.991 63.0652 155.512 63.0652C155.772 63.0652 156.039 62.9936 156.312 62.8503C156.599 62.7071 156.84 62.4727 157.035 62.1472V60.2527C157.035 59.9402 157.035 59.6667 157.035 59.4324C157.035 59.185 157.022 58.9571 156.996 58.7488C156.983 58.5274 156.964 58.3061 156.938 58.0847L155.551 57.8113V56.9324L159.086 56.0535L159.613 56.3855C159.587 56.6069 159.568 56.8542 159.555 57.1277C159.555 57.4011 159.548 57.7201 159.535 58.0847C159.535 58.4363 159.535 58.8399 159.535 59.2957V60.8582C159.535 61.1707 159.542 61.5092 159.555 61.8738C159.581 62.2253 159.613 62.5964 159.652 62.9871ZM164.828 64.9011C164.229 64.9011 163.708 64.7709 163.266 64.5105C162.836 64.2501 162.504 63.9376 162.27 63.573C162.048 63.2084 161.938 62.8634 161.938 62.5378C161.938 62.0691 162.081 61.6785 162.367 61.366C162.667 61.0404 163.122 60.7865 163.734 60.6042L166.801 59.7058V59.0027C166.801 58.7292 166.71 58.4753 166.527 58.241C166.358 57.9936 166.13 57.7917 165.844 57.6355C165.557 57.4792 165.251 57.4011 164.926 57.4011C164.717 57.4011 164.568 57.4532 164.477 57.5574C164.398 57.6485 164.346 57.8373 164.32 58.1238L164.223 59.3152C163.572 59.4454 163.038 59.4259 162.621 59.2566C162.217 59.0743 162.016 58.7813 162.016 58.3777C162.016 58.1303 162.146 57.8764 162.406 57.616C162.667 57.3556 162.986 57.1147 163.363 56.8933C163.754 56.6589 164.151 56.4636 164.555 56.3074C164.958 56.1381 165.31 56.0404 165.609 56.0144C166.768 56.0144 167.686 56.2813 168.363 56.8152C169.04 57.336 169.385 58.0391 169.398 58.9246L169.34 61.6394C169.34 62.004 169.346 62.2904 169.359 62.4988C169.385 62.7071 169.424 62.8764 169.477 63.0066L170.766 63.241V64.0613L169.496 64.6082C169.262 64.6993 169.047 64.7709 168.852 64.823C168.656 64.8751 168.467 64.9011 168.285 64.9011C167.777 64.9011 167.419 64.6407 167.211 64.1199L166.879 63.2214L167.289 63.3191C166.885 63.8139 166.469 64.2045 166.039 64.491C165.622 64.7644 165.219 64.9011 164.828 64.9011ZM165.824 63.1433C166.007 63.1433 166.182 63.1108 166.352 63.0457C166.521 62.9675 166.677 62.8569 166.82 62.7136V60.7996L165.492 61.0535C165.167 61.0925 164.932 61.1902 164.789 61.3464C164.659 61.5027 164.594 61.711 164.594 61.9714C164.594 62.2709 164.711 62.5444 164.945 62.7917C165.193 63.0261 165.486 63.1433 165.824 63.1433Z" fill="#394370"/>
<path d="M115.289 53.0261L115.783 56.8289L114.473 56.9363L113.613 54.4656C113.47 54.4369 113.312 54.4226 113.141 54.4226C112.983 54.4083 112.811 54.4011 112.625 54.4011H111.916C111.787 54.4011 111.637 54.4011 111.465 54.4011C111.307 54.4011 111.186 54.4154 111.1 54.4441C111.1 54.53 111.092 54.795 111.078 55.239C111.064 55.683 111.049 56.213 111.035 56.8289C111.035 57.4304 111.035 58.0535 111.035 58.698V60.696C111.035 61.4981 111.042 62.2286 111.057 62.8875C111.085 63.532 111.107 64.0118 111.121 64.3269L112.99 64.6277L112.926 65.7449H106.244L106.18 64.6277L108.049 64.3269C108.063 64.0118 108.077 63.532 108.092 62.8875C108.106 62.2286 108.113 61.4981 108.113 60.696V58.698C108.113 58.0535 108.106 57.4304 108.092 56.8289C108.092 56.213 108.092 55.683 108.092 55.239C108.092 54.795 108.085 54.53 108.07 54.4441C107.984 54.4154 107.855 54.4011 107.684 54.4011C107.526 54.4011 107.383 54.4011 107.254 54.4011H106.502C106.316 54.4011 106.137 54.4083 105.965 54.4226C105.793 54.4226 105.628 54.4369 105.471 54.4656L104.676 56.9792L103.344 56.8503L103.795 53.0261C103.938 53.0261 104.139 53.0333 104.396 53.0476C104.654 53.0619 104.934 53.0763 105.234 53.0906C105.535 53.1049 105.822 53.1192 106.094 53.1335C106.38 53.1335 106.617 53.1335 106.803 53.1335H112.281C112.467 53.1335 112.697 53.1335 112.969 53.1335C113.255 53.1192 113.549 53.1049 113.85 53.0906C114.15 53.0763 114.423 53.0619 114.666 53.0476C114.924 53.0333 115.132 53.0261 115.289 53.0261ZM120.832 65.9167C119.901 65.9167 119.07 65.7091 118.34 65.2937C117.624 64.8783 117.058 64.3126 116.643 63.5964C116.242 62.8803 116.041 62.071 116.041 61.1687C116.041 60.1661 116.27 59.2924 116.729 58.5476C117.187 57.7885 117.781 57.1941 118.512 56.7644C119.257 56.3347 120.051 56.127 120.896 56.1414C122.157 56.1414 123.131 56.5352 123.818 57.323C124.506 58.0964 124.85 59.1062 124.85 60.3523V60.8679H118.533V59.7507H122.744L122.422 60.2664V59.5359C122.422 58.8627 122.271 58.3256 121.971 57.9246C121.67 57.5235 121.255 57.323 120.725 57.323C120.367 57.323 120.044 57.4233 119.758 57.6238C119.471 57.8243 119.242 58.1322 119.07 58.5476C118.913 58.9486 118.834 59.4571 118.834 60.073V60.5242C118.834 61.5268 119.099 62.336 119.629 62.9519C120.173 63.5678 120.896 63.8757 121.799 63.8757C122.286 63.8757 122.73 63.7898 123.131 63.6179C123.532 63.4317 123.919 63.1238 124.291 62.6941L124.957 63.2957C124.556 64.155 123.99 64.8067 123.26 65.2507C122.529 65.6947 121.72 65.9167 120.832 65.9167Z" fill="#394370"/>
<path d="M68.0273 65.9382C67.4258 65.9382 66.7598 65.8523 66.0293 65.6804C65.3132 65.5085 64.6973 65.2794 64.1816 64.9929L64.0742 61.8132L65.4492 61.7273L66.1797 63.9402C66.4661 64.1264 66.8027 64.2768 67.1895 64.3914C67.5905 64.4916 67.9701 64.5417 68.3281 64.5417C68.9727 64.5417 69.4596 64.4057 69.7891 64.1335C70.1328 63.8614 70.3047 63.4962 70.3047 63.0378C70.3047 62.5365 70.1543 62.1355 69.8535 61.8347C69.5671 61.5339 69.1875 61.2761 68.7148 61.0613C68.2422 60.8464 67.7409 60.6388 67.2109 60.4382C66.681 60.2234 66.1797 59.9727 65.707 59.6863C65.2344 59.3855 64.8477 59.0059 64.5469 58.5476C64.2604 58.075 64.1172 57.4806 64.1172 56.7644C64.1172 55.991 64.332 55.3178 64.7617 54.7449C65.2057 54.1576 65.8216 53.7065 66.6094 53.3914C67.4115 53.0619 68.3353 52.8972 69.3809 52.8972C69.7103 52.8972 70.0612 52.9187 70.4336 52.9617C70.8203 53.0046 71.1927 53.0763 71.5508 53.1765C71.9089 53.2625 72.224 53.3627 72.4961 53.4773L72.7324 56.614L71.3789 56.7L70.6914 54.5945C70.2474 54.3653 69.7389 54.2507 69.166 54.2507C68.5788 54.2507 68.0918 54.4011 67.7051 54.7019C67.3327 54.9884 67.1465 55.3966 67.1465 55.9265C67.1465 56.3992 67.2969 56.7931 67.5977 57.1082C67.8984 57.4089 68.2852 57.6739 68.7578 57.9031C69.2305 58.1179 69.7318 58.3328 70.2617 58.5476C70.806 58.7625 71.3145 59.0203 71.7871 59.321C72.2741 59.6075 72.668 59.9727 72.9688 60.4167C73.2695 60.8608 73.4199 61.4265 73.4199 62.114C73.4199 62.8445 73.1908 63.5033 72.7324 64.0906C72.2884 64.6635 71.6582 65.1147 70.8418 65.4441C70.0397 65.7735 69.1016 65.9382 68.0273 65.9382ZM79.543 65.9167C78.612 65.9167 77.7812 65.7091 77.0508 65.2937C76.3346 64.8783 75.7689 64.3126 75.3535 63.5964C74.9525 62.8803 74.752 62.071 74.752 61.1687C74.752 60.1661 74.9811 59.2924 75.4395 58.5476C75.8978 57.7885 76.4922 57.1941 77.2227 56.7644C77.9674 56.3347 78.7624 56.127 79.6074 56.1414C80.8678 56.1414 81.8418 56.5352 82.5293 57.323C83.2168 58.0964 83.5605 59.1062 83.5605 60.3523V60.8679H77.2441V59.7507H81.4551L81.1328 60.2664V59.5359C81.1328 58.8627 80.9824 58.3256 80.6816 57.9246C80.3809 57.5235 79.9655 57.323 79.4355 57.323C79.0775 57.323 78.7552 57.4233 78.4688 57.6238C78.1823 57.8243 77.9531 58.1322 77.7812 58.5476C77.6237 58.9486 77.5449 59.4571 77.5449 60.073V60.5242C77.5449 61.5268 77.8099 62.336 78.3398 62.9519C78.8841 63.5678 79.6074 63.8757 80.5098 63.8757C80.9967 63.8757 81.4408 63.7898 81.8418 63.6179C82.2428 63.4317 82.6296 63.1238 83.002 62.6941L83.668 63.2957C83.2669 64.155 82.7012 64.8067 81.9707 65.2507C81.2402 65.6947 80.431 65.9167 79.543 65.9167Z" fill="#394370"/>
<circle cx="19" cy="23" r="3" fill="white"/>
</svg>
