<svg width="29" height="32" viewBox="0 0 29 32" fill="none" xmlns="http://www.w3.org/2000/svg">
<path d="M12.7941 7.94994C12.7941 11.3649 9.93006 14.1333 6.39706 14.1333C2.86406 14.1333 0 11.3649 0 7.94994C0 4.53498 2.86406 1.7666 6.39706 1.7666C9.93006 1.7666 12.7941 4.53498 12.7941 7.94994Z" fill="white"/>
<path d="M28.9999 7.94994C28.9999 11.3649 26.1359 14.1333 22.6029 14.1333C19.0699 14.1333 16.2058 11.3649 16.2058 7.94994C16.2058 4.53498 19.0699 1.7666 22.6029 1.7666C26.1359 1.7666 28.9999 4.53498 28.9999 7.94994Z" fill="white"/>
<path d="M18.7647 7.50834C18.7647 11.6551 15.7097 15.0167 11.9412 15.0167C8.17267 15.0167 5.11768 11.6551 5.11768 7.50834C5.11768 3.3616 8.17267 0 11.9412 0C15.7097 0 18.7647 3.3616 18.7647 7.50834Z" fill="#394370"/>
<path d="M23.8824 7.50834C23.8824 11.6551 20.8274 15.0167 17.0589 15.0167C13.2903 15.0167 10.2354 11.6551 10.2354 7.50834C10.2354 3.3616 13.2903 0 17.0589 0C20.8274 0 23.8824 3.3616 23.8824 7.50834Z" fill="#394370"/>
<path d="M21.3235 7.50831C21.3235 11.1672 18.2685 14.1333 14.4999 14.1333C10.7314 14.1333 7.67639 11.1672 7.67639 7.50831C7.67639 3.84942 10.7314 0.883301 14.4999 0.883301C18.2685 0.883301 21.3235 3.84942 21.3235 7.50831Z" fill="white"/>
<rect y="16.7833" width="11.9412" height="12.3667" rx="1" fill="white"/>
<rect x="5.11768" y="16.7833" width="11.0882" height="15.0167" rx="1" fill="#394370"/>
<rect x="17.0588" y="16.7833" width="11.9412" height="12.3667" rx="1" fill="white"/>
<rect x="12.7941" y="16.7833" width="11.0882" height="15.0167" rx="1" fill="#394370"/>
<rect x="7.67639" y="16.7833" width="13.6471" height="14.1333" rx="1" fill="white"/>
</svg>
